<svg id="Capa_1" enable-background="new 0 0 512 512" height="512" viewBox="0 0 512 512" width="512" xmlns="http://www.w3.org/2000/svg"><g><path d="m512 255.931c.038 141.384-114.546 256.031-255.931 256.069-141.384.038-256.031-114.546-256.069-255.931s114.546-256.031 255.931-256.069 256.031 114.546 256.069 255.931z" fill="#8c96dd"/><path d="m434.228 236.1c.03 109.399-88.632 198.109-198.031 198.139s-198.109-88.632-198.139-198.031c-.03-109.4 88.632-198.11 198.031-198.14 109.399-.029 198.109 88.632 198.139 198.032z" fill="#a6aee5"/><path d="m482 261c0 5.523-4.477 10-10 10s-10-4.477-10-10 4.477-10 10-10 10 4.477 10 10zm-450.367 40c-5.523 0-10 4.477-10 10s4.477 10 10 10 10-4.477 10-10-4.478-10-10-10zm224.367-289c-5.523 0-10 4.477-10 10s4.477 10 10 10 10-4.477 10-10-4.477-10-10-10z" fill="#717ed6"/><path d="m300.389 289.241c-62.805 57.4-63.142 102.272-103 107-30.14 3.575-62.56-18.216-76-44-30.198-57.932 33.757-139.194 74.988-175.628 10.625-9.389 98.533-87.071 160.012-52.372 26.688 15.063 47.002 50.517 41 81-6.885 34.97-42.686 34.36-97 84z" fill="#b9e746"/><path d="m272.582 265.42c-39.712 37.186-43.768 62.052-66.236 68.105-16.991 4.578-33.056-4.688-38.272-17.801-11.719-29.461 30.686-79.954 56.649-103.675 6.691-6.113 62.045-56.69 93.082-42.785 13.473 6.036 21.66 23.908 15.709 41.298-6.827 19.949-26.59 22.699-60.932 54.858z" fill="#dbf3a0"/><path d="m148.022 381.912c-11.31-7.952-20.774-18.432-26.633-29.67-30.198-57.932 33.757-139.194 74.988-175.628 10.625-9.389 98.533-87.071 160.012-52.372 10.269 5.796 19.594 14.611 26.84 25-1.586-1.073-3.201-2.075-4.84-3-61.48-34.7-149.387 42.982-160.012 52.372-41.231 36.435-105.186 117.697-74.988 175.628 1.358 2.604 2.91 5.168 4.633 7.67z" fill="#9bcf1b"/><path d="m446 179h-44.212c-1.602-7.49-4.357-15.042-8.215-22.371-1.586-3.012-3.342-5.943-5.243-8.77l21.13-20.249c1.993-1.911 2.061-5.076.15-7.069s-5.074-2.062-7.07-.15l-20.256 19.412c-6.007-7.196-12.954-13.395-20.335-18.06l14.822-47.245c.827-2.635-.639-5.441-3.273-6.267-2.644-.83-5.441.64-6.268 3.274l-14.248 45.417c-14.697-6.606-30.521-7.748-46.361-5.419l-1.633-22.858c-.197-2.753-2.583-4.839-5.344-4.631-2.754.197-4.827 2.589-4.631 5.344l1.717 24.034c-15.763 3.68-31.31 10.402-45.538 18.186l-21.802-39.97c-1.322-2.423-4.355-3.318-6.784-1.996-2.424 1.322-3.317 4.36-1.995 6.784l21.9 40.149c-19.55 11.672-35.914 24.68-45.834 33.182l-10.73-13.795c-1.694-2.179-4.836-2.573-7.016-.877-2.18 1.695-2.573 4.837-.877 7.017l11.125 14.304c-10.257 9.44-21.912 21.618-33.111 35.515l-38.967-30.811c-2.163-1.711-5.31-1.346-7.023.821-1.713 2.166-1.346 5.311.82 7.023l39.014 30.848c-9.296 12.289-18.018 25.677-25.036 39.545l-37.941-7.227c-2.714-.516-5.33 1.263-5.848 3.976-.517 2.712 1.264 5.331 3.977 5.847l35.386 6.74c-8.214 18.603-13 37.804-11.738 56.16l-31.535 5.256c-2.724.454-4.563 3.03-4.109 5.754.407 2.446 2.525 4.179 4.926 4.179.272 0 .55-.022.828-.069l31.194-5.199c1.338 6.789 3.604 13.422 6.939 19.819 4.924 9.446 12.536 18.698 21.834 26.466l-22.202 41.629c-1.299 2.437-.377 5.465 2.06 6.765.749.4 1.555.589 2.349.589 1.787 0 3.516-.961 4.416-2.648l21.468-40.252c13.019 8.778 28.352 14.528 43.885 14.528 2.401 0 4.811-.137 7.214-.422 2.194-.26 4.28-.632 6.271-1.108l12.479 20.501c.942 1.547 2.589 2.401 4.276 2.401.886 0 1.783-.235 2.595-.729 2.359-1.436 3.107-4.512 1.672-6.871l-11.401-18.73c13.098-6.387 21.864-18.489 32.232-33.851l36.552 32.897c.955.86 2.151 1.284 3.343 1.284 1.368 0 2.731-.558 3.719-1.655 1.847-2.052 1.681-5.214-.372-7.061l-37.602-33.842c8.591-12.708 18.888-27.346 33.73-43.366l21.225 18.678c.949.836 2.128 1.247 3.301 1.247 1.387 0 2.768-.574 3.756-1.697 1.824-2.073 1.622-5.232-.451-7.057l-20.907-18.398c3.543-3.579 7.322-7.219 11.367-10.916 12.107-11.066 23.266-19.586 33.401-26.57l40.221 42.092c.982 1.028 2.298 1.546 3.616 1.546 1.241 0 2.484-.459 3.453-1.385 1.997-1.908 2.068-5.073.161-7.069l-39.008-40.822c5.528-3.583 10.705-6.748 15.517-9.689 9.73-5.947 18.229-11.142 25.015-17.151l18.498 16.816c.958.871 2.161 1.3 3.361 1.3 1.36 0 2.715-.551 3.702-1.637 1.857-2.043 1.706-5.206-.337-7.063l-18.308-16.643c4.433-5.594 7.601-12.125 9.24-20.45 1.086-5.516 1.392-11.301.945-17.207h42.759c2.762 0 5-2.239 5-5s-2.238-5.003-5-5.003zm-53.517 25.275c-1.524 7.742-4.683 13.561-9.419 18.676-.272.198-.529.426-.764.685-.169.186-.321.381-.457.583-6.235 6.242-14.916 11.549-25.934 18.283-15.86 9.693-35.599 21.757-58.893 43.047-5.264 4.811-10.087 9.523-14.533 14.128-.453.264-.872.604-1.237 1.019-.268.304-.492.632-.673.976-18.606 19.612-30.425 37.201-40.332 51.945-14.801 22.026-23.734 35.321-43.44 37.659-29.139 3.453-58.969-18.308-70.978-41.346-12.487-23.953-7.448-53.203 5.968-81.67.553-.642.95-1.433 1.121-2.325.001-.006.002-.011.003-.017 7.256-14.867 16.735-29.474 27.129-42.951.32-.246.616-.535.878-.866.279-.353.503-.733.673-1.128 11.953-15.239 25.01-28.952 37.231-39.849.083-.057.164-.116.244-.178.256-.199.488-.419.694-.654 18.271-16.135 72.457-59.978 121.139-59.978 11.499 0 22.691 2.446 33.029 8.282 26.526 14.971 43.82 48.921 38.551 75.679z" fill="#453d83"/><path d="m415.283 394.395c-11.994 11.232-13.22 18.742-20.006 20.57-5.132 1.383-9.984-1.416-11.56-5.376-3.54-8.898 9.268-24.149 17.11-31.314 2.021-1.846 18.74-17.123 28.114-12.923 4.069 1.823 6.542 7.221 4.745 12.474-2.061 6.025-8.03 6.855-18.403 16.569zm-255.042-270.426c4.985-2.443 7.053-8.008 5.465-12.175-3.659-9.598-26.283-10.619-29.018-10.742-10.611-.479-30.452 1.249-34.241 10.044-1.686 3.914-.234 9.324 4.372 11.976 6.092 3.506 12.269-.939 28.692-.399 14.204.465 19.012 4.099 24.73 1.296z" fill="#51489a"/><path d="m270.864 457.953c16.423.539 22.6-3.905 28.692-.399 4.606 2.651 6.059 8.061 4.372 11.976-3.789 8.795-23.63 10.522-34.241 10.044-2.735-.123-25.359-1.144-29.018-10.742-1.588-4.167.48-9.732 5.465-12.175 5.719-2.804 10.527.829 24.73 1.296z" fill="#498d2d"/><path d="m264 238c0 11.046-8.954 20-20 20s-20-8.954-20-20 8.954-20 20-20 20 8.954 20 20z" fill="#6dc54a"/><path d="m261.226 248.168c-3.481 5.885-9.893 9.832-17.226 9.832-11.046 0-20-8.954-20-20 0-7.333 3.947-13.745 9.832-17.226-1.762 2.979-2.774 6.455-2.774 10.168 0 11.046 8.954 20 20 20 3.713-.001 7.189-1.012 10.168-2.774zm25.774-54.168c-5.523 0-10 4.477-10 10s4.477 10 10 10 10-4.477 10-10-4.477-10-10-10zm-82 82c-5.523 0-10 4.477-10 10s4.477 10 10 10 10-4.477 10-10-4.477-10-10-10z" fill="#5db33a"/><path d="m317 79c0 11.046-8.954 20-20 20s-20-8.954-20-20 8.954-20 20-20 20 8.954 20 20zm175 225c-11.046 0-20 8.954-20 20s8.954 20 20 20 20-8.954 20-20-8.954-20-20-20zm-364-282c-11.046 0-20 8.954-20 20s8.954 20 20 20 20-8.954 20-20-8.954-20-20-20zm-47 213c-11.046 0-20 8.954-20 20s8.954 20 20 20 20-8.954 20-20-8.954-20-20-20zm362-157c-11.046 0-20 8.954-20 20s8.954 20 20 20 20-8.954 20-20-8.954-20-20-20z" fill="#6dc54a"/><path d="m304.059 91.941c3.712 0 7.188-1.011 10.167-2.774-3.481 5.886-9.893 9.833-17.226 9.833-11.046 0-20-8.954-20-20 0-7.333 3.947-13.745 9.833-17.226-1.762 2.979-2.774 6.455-2.774 10.168 0 11.045 8.954 19.999 20 19.999zm195 245c-11.046 0-20-8.954-20-20 0-3.712 1.011-7.188 2.774-10.168-5.886 3.482-9.833 9.894-9.833 17.227 0 11.046 8.954 20 20 20 7.333 0 13.745-3.947 17.226-9.833-2.979 1.763-6.455 2.774-10.167 2.774zm-384-302c0-3.712 1.011-7.188 2.774-10.168-5.886 3.482-9.833 9.894-9.833 17.227 0 11.046 8.954 20 20 20 7.333 0 13.745-3.947 17.226-9.833-2.979 1.762-6.455 2.774-10.167 2.774-11.046 0-20-8.954-20-20zm-47 213c0-3.712 1.011-7.188 2.774-10.168-5.886 3.482-9.833 9.894-9.833 17.227 0 11.046 8.954 20 20 20 7.333 0 13.745-3.947 17.226-9.833-2.979 1.762-6.455 2.774-10.167 2.774-11.046 0-20-8.954-20-20zm362-157c0-3.712 1.011-7.188 2.774-10.168-5.886 3.482-9.833 9.894-9.833 17.227 0 11.046 8.954 20 20 20 7.333 0 13.745-3.947 17.226-9.833-2.979 1.762-6.455 2.774-10.167 2.774-11.046 0-20-8.954-20-20z" fill="#5db33a"/><path d="m134 443c0 13.807-11.193 25-25 25s-25-11.193-25-25 11.193-25 25-25 25 11.193 25 25zm86-384c-13.807 0-25 11.193-25 25s11.193 25 25 25 25-11.193 25-25-11.193-25-25-25zm-114 143c13.807 0 25-11.193 25-25s-11.193-25-25-25-25 11.193-25 25 11.193 25 25 25zm271-185c-19.33 0-35 15.67-35 35s15.67 35 35 35 35-15.67 35-35-15.67-35-35-35zm74 140c-13.807 0-25 11.193-25 25s11.193 25 25 25 25-11.193 25-25-11.193-25-25-25zm-65 129c-13.807 0-25 11.193-25 25s11.193 25 25 25 25-11.193 25-25-11.193-25-25-25zm-89 90c-13.807 0-25 11.193-25 25s11.193 25 25 25 25-11.193 25-25-11.193-25-25-25z" fill="#b9e746"/><path d="m228.823 100.176c4.64 0 8.985-1.264 12.709-3.467-4.351 7.357-12.365 12.291-21.532 12.291-13.807 0-25-11.193-25-25 0-9.167 4.934-17.181 12.291-21.533-2.203 3.724-3.467 8.069-3.467 12.709-.001 13.808 11.192 25 24.999 25zm52 292c0-4.64 1.264-8.985 3.467-12.709-7.356 4.352-12.29 12.366-12.29 21.533 0 13.807 11.193 25 25 25 9.167 0 17.181-4.934 21.533-12.291-3.724 2.203-8.069 3.467-12.709 3.467-13.808 0-25.001-11.192-25.001-25zm-188 42c0-4.64 1.264-8.985 3.467-12.709-7.356 4.352-12.29 12.366-12.29 21.533 0 13.807 11.193 25 25 25 9.167 0 17.181-4.934 21.533-12.291-3.724 2.203-8.069 3.467-12.709 3.467-13.808.001-25.001-11.192-25.001-25zm277-132c0-4.64 1.264-8.985 3.467-12.709-7.356 4.352-12.29 12.366-12.29 21.533 0 13.807 11.193 25 25 25 9.167 0 17.181-4.934 21.533-12.291-3.724 2.203-8.069 3.467-12.709 3.467-13.808 0-25.001-11.192-25.001-25zm-263.823-100.176c9.167 0 17.181-4.934 21.533-12.291-3.724 2.203-8.069 3.467-12.709 3.467-13.807 0-25-11.193-25-25 0-4.64 1.264-8.985 3.467-12.709-7.357 4.352-12.291 12.366-12.291 21.533 0 13.807 11.193 25 25 25zm353.823-3.824c-13.807 0-25-11.193-25-25 0-4.64 1.264-8.985 3.467-12.709-7.356 4.352-12.29 12.366-12.29 21.533 0 13.807 11.193 25 25 25 9.167 0 17.181-4.934 21.533-12.291-3.724 2.203-8.069 3.467-12.71 3.467zm-52.677-128.383c-5.214 3.084-11.297 4.854-17.793 4.854-19.33 0-35-15.67-35-35 0-6.496 1.77-12.579 4.854-17.793-10.3 6.092-17.207 17.312-17.207 30.146 0 19.33 15.67 35 35 35 12.833 0 24.054-6.907 30.146-17.207z" fill="#9bcf1b"/></g></svg>