<svg height="512" viewBox="0 0 512 512" width="512" xmlns="http://www.w3.org/2000/svg"><g id="Flat"><path d="m408 106v230h-92.67a64 64 0 1 0 -118.66 0h-60.67v-84.67a64 64 0 1 1 0-118.66v-76.67h222a50 50 0 0 1 50 50z" fill="#88bf40"/><path d="m154 488h198v-92.67a64 64 0 1 1 0-118.66v-76.67h-60.67a64 64 0 1 0 -118.66 0h-68.67v238a50 50 0 0 0 50 50z" fill="#0093ba"/><path d="m160 16h168v16h-168z" fill="#ccdce5"/><path d="m344 16h16v16h-16z" fill="#ccdce5"/><path d="m488 232-24-24v-72a24 24 0 0 0 -24-24h-32v32l-20-20a16.971 16.971 0 0 0 -24 0 16.971 16.971 0 0 0 0 24l36 36a45.255 45.255 0 0 0 0 64l40 40z" fill="#f5be9a"/><rect fill="#ec917f" height="22.627" rx="8" transform="matrix(.707 -.707 .707 .707 14.363 338.676)" width="16" x="408" y="140.686"/><path d="m24 408 24-24v-72a24 24 0 0 1 24-24h32v32l20-20a16.971 16.971 0 0 1 24 0 16.971 16.971 0 0 1 0 24l-36 36a45.255 45.255 0 0 1 0 64l-40 40z" fill="#f5be9a"/><rect fill="#ec917f" height="16" rx="8" transform="matrix(.707 -.707 .707 .707 -203.813 163.951)" width="22.627" x="84.686" y="320"/></g></svg>