<svg xmlns="http://www.w3.org/2000/svg" width="63" height="63" viewBox="0 0 63 63">
    <g fill="none" fill-rule="evenodd">
        <circle cx="31.5" cy="31.5" r="29.5" stroke="#00AEEF" stroke-width="4"/>
        <g fill="#00AEEF">
            <path d="M17.578 7.442l2.157-1.275c.482-.285 1.076-.286 1.558-.003l6.29 3.69c.444.26.444.908.002 1.169l-2.159 1.275c-.481.285-1.076.285-1.557.003l-6.29-3.689c-.442-.26-.444-.909-.001-1.17zm-.842 21.896L3.383 21.523c-1.76-1.033-1.5-5.88.043-6.963l13.31 7.808L38.669 9.415 23.143.308S4.542 11.288 2 12.796c-2.54 1.507-2.702 8.692-.251 10.128l14.986 8.79L38.604 18.8l-2.006-1.177-19.862 11.715z" transform="translate(12 11)"/>
            <path d="M16.88 39.612L3.411 31.756c-1.775-1.037-1.512-5.91.043-6.998l13.424 7.848L39 19.586 36.287 18v1.833l-19.56 11.949-14.111-9.15-.598.353C-.544 24.5-.708 31.72 1.764 33.165L16.88 42l22.055-12.98-2.022-1.183-20.033 11.775z" transform="translate(12 11)"/>
            <path d="M37.215 15L37 15 37 18.722 38 19zM37.215 24L37 24 37 27.722 38 28z" transform="translate(12 11)"/>
        </g>
    </g>
</svg>
