<svg id="Capa_1" enable-background="new 0 0 512 512" height="512" viewBox="0 0 512 512" width="512" xmlns="http://www.w3.org/2000/svg"><g><g><path d="m490.196 81.179 10.564 16.887v331.873l-36.973 21.127-36.972-21.127v-331.873l10.563-16.887z" fill="#64b9fc"/><path d="m463.787 0c10.215 0 19.448 4.141 26.145 10.828 6.687 6.687 10.828 15.941 10.828 26.145v27.317l-10.969 10.564h-49.297l-13.68-10.564v-27.317c.001-20.42 16.554-36.973 36.973-36.973z" fill="#fc5a36"/><path d="m426.815 429.939h73.945l-18.898 48.593-11.187 28.754c-2.44 6.285-11.335 6.285-13.786 0l-11.176-28.754z" fill="#d9ecfd"/><path d="m426.812 64.292h73.947v33.774h-73.947z" fill="#ffc85e"/><g><g><g><path d="m455.865 98.066h15.845v331.874h-15.845z" fill="#31a7fb"/></g></g></g><path d="m445.713 478.532h36.149l-11.187 28.754c-2.44 6.285-11.335 6.285-13.786 0z" fill="#3b4f66"/></g><g><path d="m382.105 7v498c0 3.866-3.134 7-7 7h-356.865c-3.866 0-7-3.134-7-7v-423.77l81.23-81.23h282.635c3.866 0 7 3.134 7 7z" fill="#d9ecfd"/><path d="m123.375 0-81.23 81.23v430.77h-23.905c-3.866 0-7-3.134-7-7v-423.77l81.23-81.23z" fill="#c5e2ff"/><path d="m113.074 0v94.833c0 3.866-3.134 7-7 7h-94.834v-20.603l81.23-81.23z" fill="#c5e2ff"/><path d="m11.24 81.234h74.234c3.866 0 7-3.134 7-7v-74.234z" fill="#ffc85e"/><g><g fill="#3b4f66"><path d="m184.126 149.891c4.268 0 7.726-3.459 7.726-7.726v-31.105h39.149v31.105c0 4.267 3.459 7.726 7.726 7.726s7.726-3.459 7.726-7.726v-72.214c0-15.565-12.663-28.228-28.228-28.228h-13.598c-15.565 0-28.228 12.663-28.228 28.228v72.214c.001 4.267 3.459 7.726 7.727 7.726zm20.502-92.716h13.598c7.044 0 12.776 5.731 12.776 12.776v25.657h-39.149v-25.657c-.001-7.045 5.731-12.776 12.775-12.776z"/><path d="m322.558 95.608h-19.573v-19.574c0-4.267-3.459-7.726-7.726-7.726s-7.726 3.459-7.726 7.726v19.574h-19.574c-4.268 0-7.726 3.459-7.726 7.726s3.459 7.726 7.726 7.726h19.574v19.574c0 4.267 3.459 7.726 7.726 7.726s7.726-3.459 7.726-7.726v-19.574h19.573c4.268 0 7.726-3.459 7.726-7.726s-3.459-7.726-7.726-7.726z"/><path d="m314.316 237.564h-230.083c-4.268 0-7.726 3.459-7.726 7.726s3.459 7.726 7.726 7.726h230.084c4.268 0 7.726-3.459 7.726-7.726s-3.459-7.726-7.727-7.726z"/><path d="m314.316 291.092h-230.083c-4.268 0-7.726 3.459-7.726 7.726s3.459 7.726 7.726 7.726h230.084c4.268 0 7.726-3.459 7.726-7.726s-3.459-7.726-7.727-7.726z"/><path d="m314.316 344.619h-230.083c-4.268 0-7.726 3.459-7.726 7.726s3.459 7.726 7.726 7.726h230.084c4.268 0 7.726-3.459 7.726-7.726s-3.459-7.726-7.727-7.726z"/><path d="m314.316 398.146h-230.083c-4.268 0-7.726 3.459-7.726 7.726s3.459 7.726 7.726 7.726h230.084c4.268 0 7.726-3.459 7.726-7.726 0-4.266-3.459-7.726-7.727-7.726z"/></g></g></g></g></svg>