<svg id="Flat" height="512" viewBox="0 0 512 512" width="512" xmlns="http://www.w3.org/2000/svg"><g><g><path d="m336 488v-32l40-108.8v-83.2a120 120 0 0 0 -120-120h-8a120 120 0 0 0 -120 120v51.2l-40 44.8v32h40l16 64h64v32z" fill="#57cee6"/><path d="m231.314 472h-23.314v-16h23.314a12.052 12.052 0 0 0 11.539-8.7l8.655-30.3 15.385 4.4-8.656 30.294a28.122 28.122 0 0 1 -26.923 20.306z" fill="#24afd6"/></g><g><path d="m200 264h-.269l-40.871-68.116-13.72 8.232 40.869 68.116a16 16 0 1 0 13.991-8.232z" fill="#ecfbf9"/><g><circle cx="120" cy="120" fill="#fac850" r="96"/><g fill="#fffdfa"><path d="m112 112h-16a16 16 0 0 0 -32 0h-16a32 32 0 0 1 64 0z"/><path d="m192 112h-16a16 16 0 0 0 -32 0h-16a32 32 0 0 1 64 0z"/><path d="m120 184a48.054 48.054 0 0 1 -48-48h16a32 32 0 0 0 64 0h16a48.054 48.054 0 0 1 -48 48z"/></g></g></g><g><path d="m366.86 204.116-13.72-8.232-40.871 68.116h-.269a15.992 15.992 0 1 0 13.991 8.232z" fill="#ecfbf9"/><g><circle cx="392" cy="120" fill="#c85aed" r="96"/><g fill="#f5f1ff"><path d="m352 120a32.036 32.036 0 0 1 -32-32h16a16 16 0 0 0 32 0h16a32.036 32.036 0 0 1 -32 32z"/><path d="m432 120a32.036 32.036 0 0 1 -32-32h16a16 16 0 0 0 32 0h16a32.036 32.036 0 0 1 -32 32z"/><path d="m440 176h-16a32 32 0 0 0 -64 0h-16a48 48 0 0 1 96 0z"/></g></g></g></g></svg>