<svg height="512" viewBox="0 0 128 128" width="512" xmlns="http://www.w3.org/2000/svg"><g id="Circle_Grid" data-name="Circle Grid"><circle cx="64" cy="64" fill="#69b0ee" r="64"/></g><g id="icon"><rect fill="#eeefee" height="5.162" rx="2.581" width="27.346" x="50.329" y="22.5"/><path d="m92.2 77.3c0 .25 0 .5-.007.745a28.2 28.2 0 0 1 -56.393-.745q0-.485.02-.969a28.2 28.2 0 0 1 18.457-25.5v-25.748h19.442v25.745a28.188 28.188 0 0 1 18.481 26.472z" fill="#eeefee"/><g fill="#ef5261"><circle cx="68.45" cy="69.12" r="3.075"/><circle cx="58.401" cy="58.412" r="2.471"/><circle cx="64.387" cy="47.924" r="2.142"/><circle cx="60.872" cy="34.8" r="2.196"/></g><path d="m54.281 27.662h19.439v2.691h-19.439z" fill="#dbd8dd"/><path d="m92.189 78.049a28.2 28.2 0 0 1 -56.389-.749q0-.485.02-.969a48.941 48.941 0 0 1 28.18 1.19 48.019 48.019 0 0 0 28.189.528z" fill="#ef5261"/></g></svg>