<svg id="Capa_1" enable-background="new 0 0 497 497" height="512" viewBox="0 0 497 497" width="512" xmlns="http://www.w3.org/2000/svg"><g><path clip-rule="evenodd" d="m312.215 428.971h-124.664l17.347-28h89.97z" fill="#f8c201" fill-rule="evenodd"/><path d="m228.46 400.971-6.53 10.54-10.82 17.46h-23.53l-.284-15.68 17.634-12.32z" fill="#faa515"/><path d="m312.23 428.971h-23.52l-17.34-28h23.52l18.67 14z" fill="#faa515"/><path clip-rule="evenodd" d="m237.86 347.855-4.11 6.64-13.56 21.87-67.36 108.66c-2.62 4.26-7.18 6.61-11.84 6.61-2.48 0-4.99-.67-7.25-2.06-6.53-4.02-8.57-12.56-4.56-19.09l59.85-94.12 14.28-22.46 3.85-6.05z" fill="#f8c201" fill-rule="evenodd"/><path clip-rule="evenodd" d="m366.03 489.575c-2.27 1.39-4.77 2.06-7.25 2.06-4.67 0-9.22-2.35-11.84-6.61l-67.38-108.66-13.4-21.61-4.28-6.9h30.9l4.12 6.49 13.97 22.02 59.71 94.12c4.02 6.53 1.98 15.07-4.55 19.09z" fill="#f8c201" fill-rule="evenodd"/><path d="m233.75 354.495-13.56 21.87h-31.16l14.28-22.46 10.1-6.05h5.76z" fill="#faa515"/><path d="m310.87 376.365h-31.31l-13.4-21.61 14.34-6.9h5.58l10.82 6.49z" fill="#faa515"/><path d="m497 15.365v27.42l-248.5 10-248.5-10v-27.42c0-5.53 4.48-10 10-10h477c5.52 0 10 4.47 10 10z" fill="#fd646f"/><path d="m30 5.365c-5.52 0-10 4.47-10 10v27.42l-10.117 10-9.883-10v-27.42c0-5.53 4.48-10 10-10h20z" fill="#fc4755"/><path d="m497 42.785v303.58c0 5.52-4.48 10-10 10h-477c-5.52 0-10-4.48-10-10v-303.58z" fill="#f5f5f5"/><path d="m497 42.785v20h-467c-5.523 0-10 4.477-10 10v283.58h-10c-5.523 0-10-4.477-10-10v-303.58h245.5z" fill="#e6e6e6"/><path d="m301.5 101.285h-238.5c-4.143 0-7.5-3.357-7.5-7.5s3.357-7.5 7.5-7.5h238.5c4.143 0 7.5 3.357 7.5 7.5s-3.357 7.5-7.5 7.5z" fill="#50758d"/><path d="m251.75 152.285h-188.75c-4.143 0-7.5-3.357-7.5-7.5s3.357-7.5 7.5-7.5h188.75c4.143 0 7.5 3.357 7.5 7.5s-3.357 7.5-7.5 7.5z" fill="#50758d"/><path d="m441.5 154.785v149.5c0 5.52-4.48 10-10 10h-79.5c-5.52 0-10-4.48-10-10v-149.5c0-5.52 4.48-10 10-10h79.5c5.52 0 10 4.48 10 10z" fill="#93ddb7"/><path d="m301.5 206.745v97.54c0 5.52-4.48 10-10 10h-79.5c-5.52 0-10-4.48-10-10v-97.54c0-5.52 4.48-10 10-10h79.5c5.52 0 10 4.48 10 10z" fill="#ffc682"/><path d="m162.5 257.745v46.54c0 5.52-4.48 10-10 10h-79.5c-5.52 0-10-4.48-10-10v-46.54c0-5.52 4.48-10 10-10h79.5c5.52 0 10 4.48 10 10z" fill="#fd646f"/><path d="m372 314.285h-20c-5.52 0-10-4.48-10-10v-149.5c0-5.52 4.48-10 10-10h10v159.5c0 5.52 4.48 10 10 10z" fill="#5ed297"/><path d="m232 314.285h-20c-5.52 0-10-4.48-10-10v-97.54c0-5.52 4.48-10 10-10h10v107.54c0 5.52 4.48 10 10 10z" fill="#ffac5c"/><path d="m93 314.285h-20c-5.52 0-10-4.48-10-10v-46.54c0-5.52 4.48-10 10-10h10v56.54c0 5.52 4.48 10 10 10z" fill="#fc4755"/></g></svg>