<svg id="line" height="512" viewBox="0 0 64 64" width="512" xmlns="http://www.w3.org/2000/svg"><g fill="#c4a2fc"><path d="m34 38a1 1 0 0 1 2 0v11h11.869c-.443-10.46-2.33-36-12.869-36s-12.424 25.5-12.869 36h11.869z"/><path d="m10 52v2a1 1 0 0 0 1 1h9.184a2.966 2.966 0 0 1 -.184-1c0-3.921.372-10.932 1.009-16.454a15.069 15.069 0 0 0 -11.009 14.454z"/><path d="m34 51h-11.942c-.058 1.845-.058 2.971-.058 3a1 1 0 0 0 1 1h11z"/><path d="m48.992 37.546c.548 4.754 1.008 11.754 1.008 16.454a2.966 2.966 0 0 1 -.184 1h9.184a1 1 0 0 0 1-1v-2a15.069 15.069 0 0 0 -11.008-14.454z"/><path d="m36 51v4h11a1 1 0 0 0 1-1c0-.029 0-1.155-.058-3z"/><path d="m27.577 57c1.633 2.54 4.408 6 7.423 6s5.79-3.46 7.423-6z"/></g><path d="m38 18a17 17 0 1 0 -24 15.474v3.707a2.975 2.975 0 0 0 -1.217 4.819 2.936 2.936 0 0 0 -.783 2 3 3 0 0 0 3 3h1.1a5 5 0 0 0 9.8 0h1.1a2.987 2.987 0 0 0 2.217-5 2.936 2.936 0 0 0 .783-2 3 3 0 0 0 -2-2.816v-3.71a17.01 17.01 0 0 0 10-15.474zm-17 31a3.006 3.006 0 0 1 -2.829-2h5.658a3.006 3.006 0 0 1 -2.829 2zm6-4h-12a1 1 0 0 1 0-2h12a1 1 0 0 1 0 2zm0-4h-12a1 1 0 0 1 0-2h12a1 1 0 0 1 0 2zm-11-4v-2.753a18.31 18.31 0 0 0 5 .753 18.352 18.352 0 0 0 5-.753v2.753zm9-4.558v-14.091l3.781-4.726a1 1 0 0 0 -1.562-1.25l-4 5a1 1 0 0 0 -.219.625v14.851a14.99 14.99 0 0 1 -2 .149 14.99 14.99 0 0 1 -2-.149v-14.851a1 1 0 0 0 -.219-.625l-4-5a1 1 0 0 0 -1.562 1.25l3.781 4.726v14.091a15 15 0 1 1 8 0z" fill="#151a6a"/></svg>