<svg height="512" viewBox="0 0 64 64" width="512" xmlns="http://www.w3.org/2000/svg"><g id="Lesson-Learning-Video-Online-Education"><path d="m61 10.96v41.04a4 4 0 0 1 -4 4h-50a4 4 0 0 1 -4-4v-41.04z" fill="#5aaae7"/><path d="m61 7v3.96h-58v-3.96a4 4 0 0 1 4-4h50a4 4 0 0 1 4 4z" fill="#ff5023"/><path d="m56.19 56a5.985 5.985 0 0 0 -5.19-3 2 2 0 0 1 -4 0 5.985 5.985 0 0 0 -5.19 3 5.857 5.857 0 0 0 -.81 3v2h16v-2a5.857 5.857 0 0 0 -.81-3z" fill="#00ccb3"/><path d="m53 42v3h-.17a2.006 2.006 0 0 1 -1.42-.59l-1.41-1.41-.83.83a4 4 0 0 1 -2.83 1.17h-1.34v-3a4 4 0 0 1 8 0z" fill="#57565c"/><path d="m37 45h-2v-4a6 6 0 0 0 -12 0v4h-2v-4a8 8 0 0 1 16 0z" fill="#ee8700"/><path d="m57 45h-2v-4a6 6 0 0 0 -12 0v4h-2v-4a8 8 0 0 1 16 0z" fill="#ee8700"/><g fill="#ff9811"><circle cx="44" cy="19" r="2"/><path d="m45 45v3h-1a3 3 0 0 1 0-6h1z"/><path d="m34 42a3 3 0 0 1 0 6h-1v-6z"/></g><path d="m37 59v2h-16v-2a5.857 5.857 0 0 1 .81-3 5.985 5.985 0 0 1 5.19-3 2 2 0 0 0 4 0 5.985 5.985 0 0 1 5.19 3 5.857 5.857 0 0 1 .81 3z" fill="#ff5023"/><path d="m33 42v3h-.17a2.006 2.006 0 0 1 -1.42-.59l-1.41-1.41-.83.83a4 4 0 0 1 -2.83 1.17h-1.34v-3a4 4 0 0 1 8 0z" fill="#57565c"/><path d="m25 45v3h-1a3 3 0 0 1 0-6h1z" fill="#ff9811"/><circle cx="19" cy="25" fill="#3d9ae2" r="8"/><circle cx="19" cy="23" fill="#ffd422" r="8"/><path d="m21.75 22.17a.99.99 0 0 1 0 1.66l-3.2 2.13a.994.994 0 0 1 -1.55-.83v-4.26a.994.994 0 0 1 1.55-.83z" fill="#ff5023"/><path d="m31 50v3a2 2 0 0 1 -4 0v-3z" fill="#ffc477"/><path d="m31 50v2.46a3.974 3.974 0 0 1 -4 0v-2.46z" fill="#ffb655"/><path d="m33 45v2a3.994 3.994 0 0 1 -6 3.46 4.225 4.225 0 0 1 -.83-.63 4.025 4.025 0 0 1 -1.17-2.83v-2h1.34a4 4 0 0 0 2.83-1.17l.83-.83 1.41 1.41a2.006 2.006 0 0 0 1.42.59z" fill="#ffc477"/><path d="m51 50v3a2 2 0 0 1 -4 0v-3z" fill="#ffc477"/><path d="m51 50v2.46a3.974 3.974 0 0 1 -4 0v-2.46z" fill="#ffb655"/><path d="m53 45v2a3.994 3.994 0 0 1 -6 3.46 4.225 4.225 0 0 1 -.83-.63 4.025 4.025 0 0 1 -1.17-2.83v-2h1.34a4 4 0 0 0 2.83-1.17l.83-.83 1.41 1.41a2.006 2.006 0 0 0 1.42.59z" fill="#ffc477"/><path d="m8 6h2v2h-2z" fill="#ed1c24"/><path d="m12 6h2v2h-2z" fill="#ed1c24"/><path d="m16 6h2v2h-2z" fill="#ed1c24"/><path d="m32 18h10v2h-10z" fill="#ff9811"/><path d="m46 18h4v2h-4z" fill="#ff9811"/><path d="m32 24h18v2h-18z" fill="#1e81ce"/><path d="m44 22a3 3 0 1 1 3-3 3 3 0 0 1 -3 3zm0-4a1 1 0 1 0 1 1 1 1 0 0 0 -1-1z" fill="#ee8700"/><path d="m54 42a3 3 0 0 1 0 6h-1v-6z" fill="#ff9811"/></g></svg>