<?xml version="1.0" encoding="UTF-8"?>
<svg width="195px" height="297px" viewBox="0 0 195 297" version="1.1" xmlns="http://www.w3.org/2000/svg" xmlns:xlink="http://www.w3.org/1999/xlink">
    <!-- Generator: Sketch 52.2 (67145) - http://www.bohemiancoding.com/sketch -->
    <title>no questions empty state</title>
    <desc>Created with Sketch.</desc>
    <defs>
        <linearGradient x1="50.0010874%" y1="100%" x2="50.0010874%" y2="0%" id="linearGradient-1">
            <stop stop-color="#808080" stop-opacity="0.25" offset="0%"></stop>
            <stop stop-color="#808080" stop-opacity="0.12" offset="54%"></stop>
            <stop stop-color="#808080" stop-opacity="0.1" offset="100%"></stop>
        </linearGradient>
        <linearGradient x1="49.9984331%" y1="100%" x2="49.9984331%" y2="0%" id="linearGradient-2">
            <stop stop-color="#808080" stop-opacity="0.25" offset="0%"></stop>
            <stop stop-color="#808080" stop-opacity="0.12" offset="54%"></stop>
            <stop stop-color="#808080" stop-opacity="0.1" offset="100%"></stop>
        </linearGradient>
        <linearGradient x1="50.0015746%" y1="100%" x2="50.0015746%" y2="0%" id="linearGradient-3">
            <stop stop-color="#808080" stop-opacity="0.25" offset="0%"></stop>
            <stop stop-color="#808080" stop-opacity="0.12" offset="54%"></stop>
            <stop stop-color="#808080" stop-opacity="0.1" offset="100%"></stop>
        </linearGradient>
        <linearGradient x1="49.9973135%" y1="99.9724087%" x2="49.9973135%" y2="-0.00753905464%" id="linearGradient-4">
            <stop stop-color="#808080" stop-opacity="0.25" offset="0%"></stop>
            <stop stop-color="#808080" stop-opacity="0.12" offset="54%"></stop>
            <stop stop-color="#808080" stop-opacity="0.1" offset="100%"></stop>
        </linearGradient>
    </defs>
    <g id="Page-1" stroke="none" stroke-width="1" fill="none" fill-rule="evenodd">
        <g id="Desktop-HD" transform="translate(-839.000000, -330.000000)">
            <g id="Group" transform="translate(697.000000, 330.000000)">
                <g id="no-questions-empty-state" transform="translate(142.000000, 0.000000)">
                    <polygon id="Shape" fill="url(#linearGradient-1)" fill-rule="nonzero" points="194.965487 145.483805 36.27 171.831239 36.27 228.288053 194.965487 225.703009"></polygon>
                    <polygon id="Shape" fill="#009AE0" fill-rule="nonzero" points="38.0957522 172.27646 191.500354 146.709027 191.500354 222.193009 38.0957522 227.062832"></polygon>
                    <polygon id="Shape" fill="url(#linearGradient-2)" fill-rule="nonzero" points="193.281239 72.4399115 83.1459292 103.79177 83.1459292 136.358496 193.281239 112.741062"></polygon>
                    <polygon id="Shape" fill="#FFFFFF" fill-rule="nonzero" points="190.282035 73.6582301 85.579115 104.095487 85.579115 134.532743 190.282035 110.183628"></polygon>
                    <path d="M102.62177,114.99823 C102.62177,119.52292 100.430177,123.726637 97.7519469,124.382389 C95.0737168,125.038142 92.9753097,121.96646 92.9753097,117.517699 C92.9753097,113.068938 95.1013274,108.889381 97.7519469,108.157699 C100.402566,107.426018 102.62177,110.47354 102.62177,114.99823 Z" id="Shape" stroke="#DBDBDB" stroke-width="2"></path>
                    <polygon id="Shape" fill="#DBDBDB" fill-rule="nonzero" points="178.109204 94.3558407 111.602124 111.850619 111.602124 108.116283 178.109204 90.1279646"></polygon>
                    <polygon id="Shape" fill="#DBDBDB" fill-rule="nonzero" points="178.109204 102.877168 111.602124 120.371947 111.602124 116.637611 178.109204 98.6527434"></polygon>
                    <path d="M68.5330088,196.960354 C68.5330088,188.383805 64.6778761,181.957434 60.0116814,182.595929 C55.4386726,183.224071 51.7975221,190.42354 51.7975221,198.689469 C51.7975221,206.955398 55.4386726,213.402478 60.0116814,213.084956 C64.6951327,212.760531 68.5330088,205.540354 68.5330088,196.960354 Z" id="Shape" fill="#FFFFFF" fill-rule="nonzero"></path>
                    <polygon id="Shape" fill="#FFFFFF" fill-rule="nonzero" points="172.021062 182.016106 80.2847788 192.187168 80.2847788 186.489027 172.021062 175.216991"></polygon>
                    <polygon id="Shape" fill="#FFFFFF" fill-rule="nonzero" points="172.021062 196.625575 80.2847788 206.796637 80.2847788 201.098496 172.021062 189.82646"></polygon>
                    <polygon id="Shape" fill="url(#linearGradient-3)" fill-rule="nonzero" points="190.913628 254.238584 82.5350442 252.965044 82.5350442 285.987345 192.131947 296.123894"></polygon>
                    <polygon id="Shape" fill="#FFFFFF" fill-rule="nonzero" points="190.282035 256.28177 85.579115 255.063451 85.579115 284.285841 190.282035 292.807168"></polygon>
                    <path d="M103.840088,271.150088 C103.840088,275.664425 101.648496,279.170973 98.9702655,278.984602 C96.2920354,278.79823 94.1970796,275.070796 94.1970796,270.639292 C94.1970796,266.207788 96.3230973,262.701239 98.9737168,262.801327 C101.624336,262.901416 103.840088,266.635752 103.840088,271.150088 Z" id="Shape" stroke="#DBDBDB" stroke-width="2"></path>
                    <polygon id="Shape" fill="#DBDBDB" fill-rule="nonzero" points="178.109204 272.109558 113.766106 269.027522 113.766106 265.217257 178.109204 267.816106"></polygon>
                    <polygon id="Shape" fill="#DBDBDB" fill-rule="nonzero" points="178.109204 280.630885 113.766106 277.54885 113.766106 273.738584 178.109204 276.337434"></polygon>
                    <polygon id="Shape" fill="url(#linearGradient-3)" fill-rule="nonzero" points="193.281239 0 83.7533628 43.890531 83.7533628 76.7023009 193.281239 40.1769027"></polygon>
                    <polygon id="Shape" fill="#FFFFFF" fill-rule="nonzero" points="191.500354 1.82575221 85.579115 45.6541593 85.579115 73.6582301 191.500354 38.3511504"></polygon>
                    <path d="M107.491593,51.079646 C107.491593,55.5663717 105.3,60.0047788 102.62177,60.9953097 C99.9435398,61.9858407 97.8451327,59.2006195 97.8451327,54.8070796 C97.8451327,50.4135398 99.9711504,45.9958407 102.62177,44.9259292 C105.272389,43.8560177 107.491593,46.5929204 107.491593,51.079646 Z" id="Shape" stroke="#DBDBDB" stroke-width="2"></path>
                    <polygon id="Shape" fill="#DBDBDB" fill-rule="nonzero" points="180.542389 21.3050442 116.185487 46.3547788 116.185487 41.9923009 180.542389 16.3938053"></polygon>
                    <polygon id="Shape" fill="#DBDBDB" fill-rule="nonzero" points="180.542389 32.2630088 116.185487 57.309292 116.185487 52.9502655 180.542389 27.3517699"></polygon>
                    <path d="M42.0889381,283.923451 L38.8274336,281.700796 L33.6021239,261.907434 L34.6582301,260.765044 C34.6582301,260.765044 34.6582301,254.380088 33.170708,250.166018 C34.0922124,249.582743 34.6685841,249.185841 34.6685841,249.185841 C31.4864602,246.290177 31.4864602,235.677345 31.4864602,235.677345 C31.4864602,235.677345 30.1369912,227.504602 27.4415044,219.935841 L32.5460177,221.202478 L39.9732743,204.798319 L39.9732743,200.932832 L43.1553982,199.00354 C43.1553982,199.00354 38.9102655,193.212212 34.6651327,199.00354 C34.6651327,199.00354 35.7246903,202.862124 34.6651327,204.794867 C33.6055752,206.727611 30.42,213.478407 30.42,213.478407 L27.7176106,213.478407 L28.2974336,210.582743 L22.7511504,210.582743 C22.4819469,210.237611 22.209292,209.916637 21.9297345,209.616372 L26.1748673,200.932832 L24.1869027,199.57646 L31.4830088,191.293274 L32.5425664,173.922743 C36.7600885,172.645752 37.7195575,168.825133 37.8852212,166.391947 C37.9611504,165.280619 36.8084071,164.435044 35.6211504,164.71115 C26.4613274,166.847522 28.300885,171.02708 28.300885,171.02708 L25.1118584,187.40708 L20.7252212,193.691947 C20.1937168,190.816991 18.1160177,188.428673 15.2893805,187.248319 L17.6846018,184.525221 C17.6846018,184.525221 12.269469,183.210265 7.12353982,184.99115 C-2.38486726,188.276814 -2.36415929,200.867257 7.12353982,204.170177 C8.46271595,204.662711 9.88897525,204.874183 11.3134513,204.791416 L11.3134513,203.825044 C11.4480531,203.825044 11.5792035,203.825044 11.710354,203.807788 C11.5481416,204.705133 11.3962832,205.719823 11.3169027,206.720708 C9.19433628,206.720708 9.19433628,217.336991 12.3764602,219.266283 L11.3169027,229.882566 L11.3169027,235.673894 C13.439469,240.505752 17.6846018,240.505752 17.6846018,240.505752 L20.8632743,254.017699 C21.8710619,254.476726 23.1825664,254.442212 24.590708,254.12469 L25.1049558,257.876283 C25.1049558,257.876283 15.5551327,264.630531 15.5551327,274.280442 L15.21,274.912035 L14.4955752,274.280442 L8.12787611,279.112301 L16.6181416,288.776018 L25.1084071,288.776018 C27.2309735,283.944159 18.740708,282.98469 18.740708,282.98469 L18.699292,278.025133 L27.3034513,268.734159 C28.7633628,272.616903 31.3656637,279.070885 33.5158407,281.849204 L32.5460177,282.025221 L32.5460177,289.745841 L50.5792035,289.745841 C55.8838938,282.95708 42.0889381,283.923451 42.0889381,283.923451 Z" id="Shape" fill="url(#linearGradient-4)" fill-rule="nonzero"></path>
                    <path d="M13.8950442,201.705929 C13.8950442,201.705929 11.7897345,210.54823 13.8950442,211.811416 L20.2109735,208.014956 L16.000354,200.014779 L13.8950442,201.705929 Z" id="Shape" fill="#F6B9AD" fill-rule="nonzero"></path>
                    <path d="M37.1846018,279.750796 L31.6072566,256.509558 L26.0402655,263.943717 C26.0402655,263.943717 30.6892035,278.818938 33.4778761,280.675752 L37.1846018,279.750796 Z" id="Shape" fill="#F6B9AD" fill-rule="nonzero"></path>
                    <path d="M40.9051327,199.800796 C40.9051327,199.800796 37.1880531,194.223451 33.4675221,199.800796 C33.4675221,199.800796 34.3959292,203.517876 33.4675221,205.378142 C32.539115,207.238407 29.7504425,213.744159 29.7504425,213.744159 L21.3809735,213.744159 L21.3809735,218.393097 L31.6072566,221.18177 L38.1199115,205.378142 L38.1199115,201.657611 L40.9051327,199.800796 Z" id="Shape" fill="#F6B9AD" fill-rule="nonzero"></path>
                    <polygon id="Shape" fill="#5989A1" fill-rule="nonzero" points="27.890177 210.955487 26.0299115 221.18177 18.5923009 219.321504 18.5923009 210.955487"></polygon>
                    <circle id="Oval" fill="#F6B9AD" fill-rule="nonzero" cx="13.0149558" cy="196.080265" r="8.3660177"></circle>
                    <path d="M11.1546903,195.151858 L18.5923009,185.853982 C18.5923009,185.853982 13.8467257,184.587345 9.33929204,186.302655 C1.01123894,189.467522 1.02504425,201.581681 9.33929204,204.777611 C10.5014057,205.251438 11.7555172,205.456721 13.0080531,205.378142 L13.0080531,199.800796 L10.2193805,199.800796 L11.1546903,195.151858 Z" id="Shape" fill="#3D213C" fill-rule="nonzero"></path>
                    <path d="M31.6072566,175.627699 L30.6788496,192.359735 L23.2412389,201.657611 L18.5923009,198.868938 L25.1015044,188.642655 L27.890177,172.839027 C27.890177,172.839027 26.2784071,168.811327 34.3061947,166.754336 C34.7959696,166.625598 35.3177761,166.738775 35.7102034,167.058859 C36.1026307,167.378943 36.318378,167.867353 36.290708,168.373009 C36.1423009,170.71646 35.3036283,174.395575 31.6072566,175.627699 Z" id="Shape" fill="#F6B9AD" fill-rule="nonzero"></path>
                    <path d="M24.169646,249.071947 L25.0980531,256.509558 C25.0980531,256.509558 16.7216814,263.01531 16.7216814,272.309735 L15.7932743,274.17 L18.5819469,276.958673 L33.4571681,259.294779 C33.4571681,259.294779 33.4571681,249.068496 30.6684956,246.279823 L24.169646,249.071947 Z" id="Shape" fill="#F6B9AD" fill-rule="nonzero"></path>
                    <path d="M19.4827434,275.902566 L19.520708,280.679204 C19.520708,280.679204 26.9583186,281.607611 25.0980531,286.256549 L17.6638938,286.256549 L10.2262832,276.958673 L15.8036283,272.309735 L19.4827434,275.902566 Z" id="Shape" fill="#E9F2FB" fill-rule="nonzero"></path>
                    <path d="M36.2561947,278.818938 L39.9732743,281.607611 C39.9732743,281.607611 52.0529204,280.679204 47.410885,287.184956 L31.6072566,287.184956 L31.6072566,279.750796 L36.2561947,278.818938 Z" id="Shape" fill="#E9F2FB" fill-rule="nonzero"></path>
                    <path d="M33.4675221,248.150442 C33.4675221,248.150442 25.1015044,254.659646 21.3878761,252.799381 L18.5992035,239.784425 C18.5992035,239.784425 14.8821239,239.784425 13.0218584,235.135487 L13.0218584,229.547788 L30.6857522,235.125133 C30.6857522,235.125133 30.6788496,245.351416 33.4675221,248.150442 Z" id="Shape" fill="#009AE0" fill-rule="nonzero"></path>
                    <path d="M26.0402655,201.657611 L18.6026549,196.080265 C18.6026549,196.080265 14.8855752,207.234956 13.0253097,207.234956 C11.1650442,207.234956 11.1650442,217.461239 13.9537168,219.314602 L13.0253097,229.540885 L30.6892035,235.11823 C30.6892035,235.11823 27.900531,216.525929 22.3231858,210.016726 L26.0402655,201.657611 Z" id="Shape" fill="#76B6D7" fill-rule="nonzero"></path>
                    <polygon id="Shape" fill="#47E6B1" fill-rule="nonzero" points="98.1730088 51.7146903 100.299027 51.3902655 102.425044 53.5128319 104.875487 48.9363717 107.491593 48.9363717 102.425044 55.3109735"></polygon>
                    <polygon id="Shape" fill="#6C63FF" fill-rule="nonzero" points="52.6154867 197.536726 56.0012389 197.015575 59.3869912 200.401327 63.2904425 193.112124 67.4561947 193.112124 59.3869912 203.265929"></polygon>
                    <polygon id="Shape" fill="#009AE0" fill-rule="nonzero" points="52.6154867 197.536726 56.0012389 197.015575 59.3869912 200.401327 63.2904425 193.112124 67.4561947 193.112124 59.3869912 203.265929"></polygon>
                </g>
            </g>
        </g>
    </g>
</svg>