<?xml version="1.0"?>
<svg xmlns="http://www.w3.org/2000/svg" xmlns:xlink="http://www.w3.org/1999/xlink" version="1.1" id="Capa_1" x="0px" y="0px" viewBox="0 0 512 512" style="enable-background:new 0 0 512 512;" xml:space="preserve" width="512px" height="512px"><g><g>
	<g>
		<path d="M281.6,0h-256C10.24,0,0,10.24,0,25.6v460.8C0,501.76,10.24,512,25.6,512h332.8c15.36,0,25.6-10.24,25.6-25.6v-384    L281.6,0z M76.8,76.8H256c15.36,0,25.6,10.24,25.6,25.6c0,15.36-10.24,25.6-25.6,25.6H76.8c-15.36,0-25.6-10.24-25.6-25.6    C51.2,87.04,61.44,76.8,76.8,76.8z M307.2,435.2H76.8c-15.36,0-25.6-10.24-25.6-25.6c0-15.36,10.24-25.6,25.6-25.6h230.4    c15.36,0,25.6,10.24,25.6,25.6C332.8,424.96,320,435.2,307.2,435.2z M307.2,332.8H76.8c-15.36,0-25.6-10.24-25.6-25.6    c0-15.36,10.24-25.6,25.6-25.6h230.4c15.36,0,25.6,10.24,25.6,25.6C332.8,322.56,320,332.8,307.2,332.8z M307.2,230.4H76.8    c-15.36,0-25.6-10.24-25.6-25.6c0-15.36,10.24-25.6,25.6-25.6h230.4c15.36,0,25.6,10.24,25.6,25.6    C332.8,220.16,320,230.4,307.2,230.4z" data-original="#000000" class="active-path" data-old_color="#000000" fill="#009AE0"/>
	</g>
</g><g>
	<g>
		<polygon points="435.2,409.6 473.6,512 512,409.6   " data-original="#000000" class="active-path" data-old_color="#000000" fill="#009AE0"/>
	</g>
</g><g>
	<g>
		<path d="M499.2,0H448c-7.68,0-12.8,5.12-12.8,12.8v345.6H512V12.8C512,5.12,506.88,0,499.2,0z" data-original="#000000" class="active-path" data-old_color="#000000" fill="#009AE0"/>
	</g>
</g></g> </svg>
