<svg id="line" height="512" viewBox="0 0 64 64" width="512" xmlns="http://www.w3.org/2000/svg"><g fill="#c4a2fc"><path d="m19.747 39.2h17.953a1 1 0 0 0 1-1v-17.953a17.989 17.989 0 1 1 -18.953 18.953z"/><path d="m36.7 20.247v16.953h-16.953a18 18 0 0 1 16.953-16.953z"/><path d="m60.493 37.2h-1.034a2 2 0 0 1 -1.976-1.741 20 20 0 0 0 -17.046-17.049 2 2 0 0 1 -1.74-1.976v-1.034a1.993 1.993 0 0 1 2.224-1.991 25.046 25.046 0 0 1 21.563 21.563 1.994 1.994 0 0 1 -1.991 2.228z"/><path d="m14.9 39.2h1.034a2 2 0 0 1 1.976 1.74 20 20 0 0 0 17.046 17.043 2 2 0 0 1 1.744 1.976v1.034a1.994 1.994 0 0 1 -2.225 1.991 25.046 25.046 0 0 1 -21.566-21.563 1.993 1.993 0 0 1 1.991-2.221z"/><path d="m40.437 57.983a20 20 0 0 0 17.046-17.046 2 2 0 0 1 1.976-1.74h1.034a1.993 1.993 0 0 1 1.991 2.224 25.046 25.046 0 0 1 -21.563 21.563 1.993 1.993 0 0 1 -2.221-1.991v-1.034a2 2 0 0 1 1.737-1.976z"/></g><path d="m1.5 11.41v4.18a1 1 0 0 0 1 1h2.654a8.767 8.767 0 0 0 .4.972l-1.875 1.881a1 1 0 0 0 0 1.413l1.954 1.958a20.6 20.6 0 0 0 9.744 18v9.186a1 1 0 0 0 1 1h19.5a1 1 0 0 0 1-1v-8.77h6.758a3 3 0 0 0 3-3v-11.65h3.865a1 1 0 0 0 .873-1.487l-2.826-5.069c-2.584-4.636-2.37-6.9-6.193-11.1l-.027-.024a21.059 21.059 0 0 0 -25.26-4.545v-2.355a1 1 0 0 0 -1-1h-4.167a1 1 0 0 0 -1 1v2.661a8.827 8.827 0 0 0 -.969.4l-1.881-1.877a1 1 0 0 0 -1.416 0l-2.955 2.96a1 1 0 0 0 0 1.413l1.878 1.88a8.864 8.864 0 0 0 -.4.973h-2.657a1 1 0 0 0 -1 1zm6.145 12.653a1.291 1.291 0 0 0 .405-.247l1.876-1.879a8.827 8.827 0 0 0 .969.4v2.663a1 1 0 0 0 1 1h4.172a1 1 0 0 0 1-1v-2.661a8.827 8.827 0 0 0 .969-.4l1.876 1.879a1 1 0 0 0 1.416 0l2.955-2.96a1 1 0 0 0 0-1.413l-1.878-1.88a9.064 9.064 0 0 0 .4-.973h2.654a1 1 0 0 0 1-1v-4.182a1 1 0 0 0 -1-1h-2.651a8.963 8.963 0 0 0 -.4-.972l1.878-1.881a1 1 0 0 0 0-1.413l-1.686-1.689a19.117 19.117 0 0 1 18.268 5.808l.031.032c3.391 3.74 3.446 6.3 5.905 10.7l2 3.582h-3.17a1 1 0 0 0 -1 1v12.653a1 1 0 0 1 -1 1h-7.76a1 1 0 0 0 -1 1v8.77h-17.5v-8.77a1 1 0 0 0 -.55-.893c-4.091-1.876-8.941-8.537-9.179-15.274zm-4.145-11.653h2.4a1 1 0 0 0 .967-.746 7.008 7.008 0 0 1 .784-1.881 1 1 0 0 0 -.151-1.23l-1.7-1.703 1.542-1.544 1.7 1.7a1 1 0 0 0 1.233.145 7.016 7.016 0 0 1 1.876-.784 1 1 0 0 0 .749-.967v-2.4h2.172v2.4c0 .91.868.973 1.389 1.166a7.067 7.067 0 0 1 1.235.586 1.028 1.028 0 0 0 1.231-.146l1.7-1.7 1.535 1.544-1.7 1.7a1 1 0 0 0 -.145 1.23 7.041 7.041 0 0 1 .784 1.881 1 1 0 0 0 .967.746h2.395v2.18h-2.396a1 1 0 0 0 -.967.746 7.041 7.041 0 0 1 -.784 1.881 1 1 0 0 0 .145 1.23l1.7 1.7-1.541 1.55-1.7-1.7a1 1 0 0 0 -1.233-.145 7.044 7.044 0 0 1 -1.876.784 1 1 0 0 0 -.746.967v2.4h-2.165v-2.4a1 1 0 0 0 -.746-.967 7.016 7.016 0 0 1 -1.876-.784 1 1 0 0 0 -1.233.145l-1.7 1.7-1.545-1.544 1.7-1.7a1 1 0 0 0 .145-1.23 7.008 7.008 0 0 1 -.784-1.881 1 1 0 0 0 -.961-.749h-2.4z" fill="#151a6a"/><path d="m8.808 13.5a5.173 5.173 0 1 0 5.172-5.18 5.182 5.182 0 0 0 -5.172 5.18zm2 0a3.173 3.173 0 1 1 3.172 3.18 3.179 3.179 0 0 1 -3.172-3.18z" fill="#151a6a"/></svg>