<svg id="line" height="512" viewBox="0 0 64 64" width="512" xmlns="http://www.w3.org/2000/svg"><g fill="#c4a2fc"><path d="m63 33v-5a3 3 0 0 0 -3-3h-8a3 3 0 0 0 -3 3v-5h-14v3.748a2.994 2.994 0 0 0 -2.415-2.014l-7.924-1.1a3 3 0 0 0 -3.385 2.557l-.691 4.952 13.866 1.933.549-3.937v30.861a3 3 0 0 0 3 3h8a3 3 0 0 0 3-3 3 3 0 0 0 3 3h8a3 3 0 0 0 3-3v-5h-14v-2h14v-18h-14v-2zm-18 6a1 1 0 0 1 -1 1h-4a1 1 0 0 1 -1-1v-13a1 1 0 0 1 1-1h4a1 1 0 0 1 1 1zm10-1a1 1 0 0 1 2 0v12a1 1 0 0 1 -2 0z"/><path d="m20.309 33.12-2.485 17.827 13.867 1.933 2.485-17.827z"/><path d="m17.548 52.928-.69 4.953a3 3 0 0 0 2.557 3.385l7.923 1.105a3.006 3.006 0 0 0 3.385-2.558l.69-4.952z"/><path d="m41 27h2v11h-2z"/><path d="m49 16a3 3 0 0 0 -3-3h-8a3 3 0 0 0 -3 3v5h14z"/></g><path d="m48 29v-7.85a1 1 0 0 0 -.56-.9 15.236 15.236 0 0 0 -8.964-1.061 13.471 13.471 0 0 0 -8.184-5.673 7 7 0 1 0 -8.584 0 13.5 13.5 0 0 0 -8.19 5.671 15.241 15.241 0 0 0 -8.958 1.065 1 1 0 0 0 -.56.9v7.848a3 3 0 0 0 -3 3v4a3 3 0 0 0 3 3v6.88a1 1 0 0 0 1.311.951 20.193 20.193 0 0 1 19.989 3.884 1 1 0 0 0 1.4 0 20.464 20.464 0 0 1 19.989-3.883 1 1 0 0 0 1.311-.952v-6.88a3 3 0 0 0 3-3v-4a3 3 0 0 0 -3-3zm-27-21a5 5 0 1 1 5 5 5.006 5.006 0 0 1 -5-5zm-16 29h-1a1 1 0 0 1 -1-1v-4a1 1 0 0 1 1-1h1a1 1 0 0 1 1 1v4a1 1 0 0 1 -1 1zm20 10.9a22.215 22.215 0 0 0 -19-3.362v-5.722a3 3 0 0 0 2-2.816v-4a3 3 0 0 0 -2-2.816v-7.384c5.652-2.331 13.789.74 19 3.772zm1-24.07a39.542 39.542 0 0 0 -10.318-4.23c1.309-1.689 4.418-4.6 10.318-4.6 5.95 0 9.03 2.907 10.324 4.6a39.568 39.568 0 0 0 -10.324 4.231zm20 20.708a22.223 22.223 0 0 0 -19 3.362v-22.333c5.208-3.033 13.37-6.1 19-3.772v7.389a3 3 0 0 0 -2 2.816v4a3 3 0 0 0 2 2.816zm3-8.538a1 1 0 0 1 -1 1h-1a1 1 0 0 1 -1-1v-4a1 1 0 0 1 1-1h1a1 1 0 0 1 1 1z" fill="#151a6a"/></svg>