<svg height="512pt" viewBox="-18 0 512 512" width="512pt" xmlns="http://www.w3.org/2000/svg"><path d="m61.792969 176.550781h35.308593v70.621094h-35.308593zm0 0" fill="#b9b9b9"/><path d="m220.691406 176.550781h35.308594v70.621094h-35.308594zm0 0" fill="#b9b9b9"/><path d="m379.585938 176.550781h35.3125v70.621094h-35.3125zm0 0" fill="#b9b9b9"/><path d="m61.792969 176.550781h35.308593v26.484375h-35.308593zm0 0" fill="#a8a8a8"/><path d="m220.691406 176.550781h35.308594v26.484375h-35.308594zm0 0" fill="#a8a8a8"/><path d="m379.585938 176.550781h35.3125v26.484375h-35.3125zm0 0" fill="#a8a8a8"/><path d="m0 238.34375h476.691406v35.3125h-476.691406zm0 0" fill="#cdcdcd"/><path d="m141.242188 141.242188h-123.585938v-97.105469c0-24.375 19.761719-44.136719 44.136719-44.136719h35.308593c24.378907 0 44.140626 19.761719 44.140626 44.136719zm0 0" fill="#64a8b2"/><path d="m300.136719 141.242188h-123.585938v-97.105469c0-24.375 19.761719-44.136719 44.140625-44.136719h35.308594c24.378906 0 44.136719 19.761719 44.136719 44.136719zm0 0" fill="#64a8b2"/><path d="m459.035156 141.242188h-123.585937v-97.105469c0-24.375 19.761719-44.136719 44.136719-44.136719h35.3125c24.375 0 44.136718 19.761719 44.136718 44.136719zm0 0" fill="#64a8b2"/><path d="m141.242188 414.898438h35.308593v70.617187h-35.308593zm0 0" fill="#b9b9b9"/><path d="m300.136719 414.898438h35.3125v70.617187h-35.3125zm0 0" fill="#b9b9b9"/><path d="m141.242188 414.898438h35.308593v26.480468h-35.308593zm0 0" fill="#a8a8a8"/><path d="m300.136719 414.898438h35.3125v26.480468h-35.3125zm0 0" fill="#a8a8a8"/><g fill="#5d9aa4"><path d="m52.964844 35.308594h52.964844v35.3125h-52.964844zm0 0"/><path d="m211.863281 35.308594h52.964844v35.3125h-52.964844zm0 0"/><path d="m370.757812 35.308594h52.964844v35.3125h-52.964844zm0 0"/><path d="m459.035156 132.414062h-123.585937c-9.75 0-17.65625 7.902344-17.65625 17.65625 0-9.753906-7.902344-17.65625-17.65625-17.65625h-123.585938c-9.75 0-17.652343 7.902344-17.652343 17.65625 0-9.753906-7.90625-17.65625-17.65625-17.65625h-123.585938c-9.75 0-17.65625 7.902344-17.65625 17.65625v26.480469c0 4.875 3.953125 8.828125 8.828125 8.828125h141.242187c4.875 0 8.828126-3.953125 8.828126-8.828125 0 4.875 3.949218 8.828125 8.824218 8.828125h141.242188c4.875 0 8.828125-3.953125 8.828125-8.828125 0 4.875 3.953125 8.828125 8.828125 8.828125h141.242187c4.875 0 8.828125-3.953125 8.828125-8.828125v-26.480469c0-9.753906-7.90625-17.65625-17.65625-17.65625zm0 0"/></g><path d="m88.277344 476.691406h311.914062v35.308594h-311.914062zm0 0" fill="#cdcdcd"/><path d="m379.585938 379.585938h-123.585938v-97.101563c0-24.378906 19.761719-44.140625 44.136719-44.140625h35.3125c24.375 0 44.136719 19.761719 44.136719 44.140625zm0 0" fill="#dc4d41"/><path d="m220.691406 379.585938h-123.589844v-97.101563c0-24.378906 19.761719-44.140625 44.140626-44.140625h35.308593c24.378907 0 44.140625 19.761719 44.140625 44.140625zm0 0" fill="#dc4d41"/><path d="m97.101562 370.757812h123.589844c9.75 0 17.652344 7.90625 17.652344 17.65625v26.484376c0 4.875-3.953125 8.824218-8.828125 8.824218h-141.238281c-4.875 0-8.828125-3.949218-8.828125-8.824218v-26.484376c0-9.75 7.902343-17.65625 17.652343-17.65625zm0 0" fill="#c7463b"/><path d="m256 370.757812h123.585938c9.75 0 17.65625 7.90625 17.65625 17.65625v26.484376c0 4.875-3.953126 8.824218-8.828126 8.824218h-141.242187c-4.875 0-8.828125-3.949218-8.828125-8.824218v-26.484376c0-9.75 7.90625-17.65625 17.65625-17.65625zm0 0" fill="#c7463b"/><path d="m291.308594 273.65625h52.96875v35.308594h-52.96875zm0 0" fill="#c7463b"/><path d="m132.414062 273.65625h52.964844v35.308594h-52.964844zm0 0" fill="#c7463b"/></svg>