<svg id="Layer_1" enable-background="new 0 0 512 512" height="512" viewBox="0 0 512 512" width="512" xmlns="http://www.w3.org/2000/svg"><g><path d="m256 21.996c-13.447 0-26.636 1.1-39.494 3.185l-199.712 188.682c-3.784 17.11-5.796 34.886-5.796 53.135 0 26.54 4.237 52.087 12.042 76.021 2.183 8.481 121.884 142.408 121.884 142.408 33.343 16.989 71.089 26.573 111.076 26.573 135.311 0 245.002-109.691 245.002-245.002s-109.691-245.002-245.002-245.002z" fill="#816ae2"/><path d="m361.864 119.195c39.667 16.362 71.232 40.258 89.862 68.604-26.016-94.293-112.395-163.546-214.961-163.546 51.734 0 97.456 37.529 125.099 94.942z" fill="#73c3f9"/><path d="m361.864 375.283c-27.643 57.413-73.365 94.943-125.099 94.943 102.566 0 188.945-69.253 214.961-163.546-18.63 28.345-50.195 52.242-89.862 68.603z" fill="#73c3f9"/><path d="m111.666 375.283c-39.667-16.362-71.232-40.259-89.863-68.605-.639-2.315-1.239-4.646-1.804-6.991 23.59 97.841 111.681 170.538 216.766 170.538-51.734.001-97.456-37.528-125.099-94.942z" fill="#1886ea"/><path d="m111.666 119.195c27.643-57.413 73.365-94.942 125.1-94.942-105.085 0-193.177 72.696-216.766 170.538.566-2.345 1.166-4.675 1.804-6.99 18.629-28.347 50.195-52.244 89.862-68.606z" fill="#1886ea"/><g fill="#4fabf7"><path d="m361.864 375.283c-23.77 9.805-50.449 16.895-79.017 20.606-11.321 45.618-27.77 74.336-46.082 74.336 51.734.001 97.456-37.528 125.099-94.942z"/><path d="m111.666 119.195c23.771-9.805 50.45-16.895 79.017-20.606 11.321-45.618 27.771-74.336 46.082-74.336-51.734 0-97.456 37.529-125.099 94.942z"/><path d="m190.683 395.889c-28.568-3.711-55.247-10.802-79.017-20.606 27.643 57.413 73.365 94.943 125.1 94.943-18.312 0-34.762-28.719-46.083-74.337z"/><path d="m282.847 98.589c28.568 3.711 55.247 10.802 79.017 20.606-27.643-57.413-73.365-94.942-125.099-94.942 18.311 0 34.76 28.718 46.082 74.336z"/></g><path d="m190.683 98.589c29.806-3.872 61.026-4.045 92.164 0-11.321-45.618-27.77-74.336-46.082-74.336-18.311 0-34.761 28.718-46.082 74.336z" fill="#73c3f9"/><path d="m282.847 395.889c-29.742 3.864-60.964 4.053-92.164 0 11.321 45.618 27.771 74.336 46.082 74.336 18.311.001 34.76-28.718 46.082-74.336z" fill="#73c3f9"/><path d="m361.864 119.195c11.691 24.283 20.147 52.12 24.454 82.184 45.087 11.312 73.421 27.662 73.432 45.848-.002-19.43-2.531-39.505-8.014-59.393-.003-.012-.007-.024-.01-.036-18.63-28.344-50.195-52.241-89.862-68.603z" fill="#4fabf7"/><path d="m111.666 375.283c-11.691-24.282-20.147-52.12-24.454-82.184-45.096-11.314-73.433-27.669-73.433-45.86 0 2.325.047 4.639.118 6.946.541 17.679 3.182 35.369 7.907 52.493 18.629 28.346 50.195 52.243 89.862 68.605z" fill="#4fabf7"/><path d="m87.211 201.38c4.307-30.065 12.763-57.902 24.454-82.184-39.667 16.362-71.232 40.259-89.863 68.605-5.398 19.565-8.025 39.697-8.025 59.438v.001c.002-18.192 28.338-34.547 73.434-45.86z" fill="#4fabf7"/><path d="m459.633 254.201c.071-2.309.118-4.624.118-6.95-.012 18.186-28.345 34.537-73.432 45.848-4.307 30.065-12.763 57.902-24.454 82.184 39.667-16.362 71.232-40.258 89.862-68.604 1.029-4.834 7.036-24.006 7.906-52.478z" fill="#4fabf7"/><path d="m282.847 395.889c28.568-3.711 55.247-10.802 79.017-20.606 11.691-24.283 20.147-52.12 24.454-82.184-25.368 6.364-56.043 11.13-89.961 13.733-2.571 33.519-7.258 63.865-13.51 89.057z" fill="#73c3f9"/><path d="m386.319 201.38c-4.307-30.065-12.763-57.902-24.454-82.184-23.77-9.804-50.449-16.895-79.017-20.606 6.252 25.193 10.939 55.538 13.511 89.058 33.917 2.601 64.591 7.367 89.96 13.732z" fill="#73c3f9"/><path d="m87.211 293.099c4.307 30.065 12.763 57.902 24.454 82.184 23.771 9.805 50.449 16.895 79.017 20.606-6.252-25.193-10.939-55.538-13.51-89.058-33.918-2.602-64.592-7.368-89.961-13.732z" fill="#1886ea"/><path d="m190.683 98.589c-28.568 3.711-55.247 10.801-79.017 20.606-11.691 24.282-20.147 52.12-24.454 82.184 25.368-6.364 56.043-11.13 89.961-13.732 2.571-33.52 7.258-63.865 13.51-89.058z" fill="#1886ea"/><path d="m177.173 306.832c2.572 33.52 7.258 63.865 13.51 89.058 29.806 3.872 61.026 4.045 92.164 0 6.252-25.193 10.939-55.538 13.511-89.058-37.949 2.911-79.383 3.053-119.185 0z" fill="#4fabf7"/><path d="m296.357 187.647c-2.572-33.52-7.258-63.865-13.511-89.058-29.742-3.864-60.964-4.053-92.164 0-6.252 25.193-10.939 55.538-13.51 89.058 37.952-2.911 79.387-3.053 119.185 0z" fill="#4fabf7"/><path d="m87.211 201.38c-45.096 11.314-73.433 27.669-73.433 45.86 0 18.191 28.336 34.546 73.433 45.86-4.322-30.171-4.324-61.535 0-91.72z" fill="#1886ea"/><path d="m459.751 247.228c-.012-18.186-28.345-34.537-73.432-45.848 4.322 30.167 4.324 61.534 0 91.719 45.087-11.311 73.42-27.662 73.432-45.848v-.012z" fill="#73c3f9"/><path d="m386.319 201.38c-25.368-6.364-56.043-11.13-89.961-13.732 2.911 37.956 3.053 79.386 0 119.185 33.919-2.602 64.593-7.368 89.961-13.733 4.321-30.168 4.324-61.535 0-91.72z" fill="#4fabf7"/><path d="m177.173 187.647c-33.919 2.602-64.593 7.368-89.961 13.732-4.322 30.17-4.324 61.534 0 91.719 25.368 6.364 56.043 11.13 89.961 13.733-2.912-37.955-3.053-79.386 0-119.184z" fill="#4fabf7"/><path d="m177.173 187.647c-2.911 37.956-3.053 79.386 0 119.185 37.951 2.911 79.386 3.053 119.185 0 2.911-37.956 3.053-79.386 0-119.185-37.949-2.911-79.383-3.054-119.185 0z" fill="#73c3f9"/><path d="m170.371 466.268c3.879-2.529 6.059-4.224 6.059-4.224 15.414-17.219 24.79-39.952 24.79-64.878 0-53.744-43.569-97.313-97.313-97.313-33.703 0-63.401 17.135-80.866 43.166 11.638 35.688 31.249 67.769 56.725 94.15z" fill="#ffe98d"/><path d="m144.994 394.807s-42.107-65.641-65.24-65.641c-18.321 0-18.305-14.097-17.506-19.965-15.922 7.555-29.469 19.3-39.209 33.817 11.638 35.688 31.249 67.769 56.725 94.15l90.606 29.099c3.879-2.529 6.059-4.224 6.059-4.224 7.284-8.136 13.197-17.515 17.432-27.764-50.521 9.899-48.867-39.472-48.867-39.472z" fill="#ffdd40"/><path d="m131.221 444.63c-3.301-4.656-4.215-11.855-4.394-17.075-2.315 2.697-4.745 4.952-7.067 6.755-9.311 7.231-22.408 7.221-31.707 0-2.321-1.803-4.751-4.058-7.066-6.755-.099 2.858-.422 6.308-1.231 9.611 10.273 10.638 21.497 20.35 33.541 28.995 6.022-1.362 11.708-4.018 16.629-7.839 3.446-2.676 7.035-5.971 10.501-9.847-2-.644-4.034-1.237-6.119-1.759-1.262-.317-2.371-1.076-3.087-2.086z" fill="#fcad6d"/><path d="m88.052 434.31c-2.321-1.803-4.751-4.058-7.066-6.755-.099 2.858-.422 6.308-1.231 9.611 7.432 7.695 15.367 14.898 23.744 21.571 1.751-5.937 2.162-12.962 2.052-19.073-6.141.388-12.392-1.388-17.499-5.354z" fill="#fd995b"/><path d="m159.883 457.074c-6.665-3.759-13.55-6.814-20.97-9.069-3.408 3.873-6.958 7.133-10.358 9.773-4.831 3.751-10.438 6.325-16.373 7.569 10.337 7.508 21.276 14.236 32.743 20.08 12.043-5.608 22.751-13.603 31.507-23.385-2.585-.803-5.42-1.358-8.532-1.613-2.958-.242-4.531-1.389-8.017-3.355z" fill="#3c58a0"/><path d="m403.689 190.596c40.818 0 72.8-28.716 72.8-28.716 15.248-17.18 24.513-39.789 24.513-64.567 0-53.744-43.569-97.313-97.313-97.313-53.745 0-97.313 43.569-97.313 97.313 0 24.777 9.265 47.387 24.514 64.567.001.002 31.983 28.716 72.799 28.716z" fill="#4ce088"/><path d="m452.169 119.07s-56.531-84.57-79.015-84.57c-16.915 0-19.498-13.722-19.74-20.521-28.191 17.044-47.038 47.988-47.038 83.334 0 24.777 9.265 47.387 24.514 64.567.002.002 31.984 28.716 72.8 28.716 40.818 0 72.8-28.716 72.8-28.716 8.387-9.45 14.95-20.55 19.171-32.742-26.784 13.974-43.492-10.068-43.492-10.068z" fill="#30c16b"/><path d="m439.414 83.106c.085 4.658-.375 9.429-.873 12.61-2.351 10.361-5.745 19.381-10.086 26.81-1.969 3.368-4.424 6.431-7.299 9.101l-.368.342v2.32c0 2.405.935 4.63 2.526 6.678 8.908-.538 16.481-2.343 22.45-4.398 7.185-2.474 10.331-10.993 6.405-17.5-9.244-15.322-7.866-35.964-7.866-35.964h-4.889z" fill="#2a428c"/><path d="m452.169 119.07c-.867-1.438-1.641-2.922-2.331-4.431-10.759 6.241-15.058-2.602-15.058-2.602s-.278-.408-.787-1.166c-1.626 4.226-3.473 8.122-5.537 11.655-1.969 3.368-4.424 6.431-7.299 9.101l-.368.342v2.32c0 2.405.935 4.63 2.526 6.678 8.908-.538 16.481-2.343 22.45-4.398 7.184-2.474 10.33-10.992 6.404-17.499z" fill="#1c2e7a"/><path d="m361.618 136.57c5.969 2.055 13.542 3.86 22.45 4.398 1.592-2.048 2.526-4.273 2.526-6.678v-2.85l-.352-.34c-2.631-2.54-4.899-5.425-6.739-8.573-4.344-7.434-7.736-16.451-10.084-26.8-.514-3-.979-7.85-.876-12.621h-5.465s1.378 20.642-7.866 35.964c-3.924 6.507-.779 15.025 6.406 17.5z" fill="#1c2e7a"/><g><path d="m424.852 23.621c-5.538-2.858-12.425-4.84-20.873-4.84-8.447 0-15.334 1.983-20.873 4.84-12.124 6.255-19.595 18.675-19.595 32.077v16.532.006c1.912-.045 4.028.582 5.39 1.49.502-1.643 1.19-3.066 2.119-4.113.836-.942 1.361-2.108 1.398-3.355.143-4.773 1.395-16.051 9.799-20.368 2.342-1.203 5.202-.285 6.517 1.995 5.062 8.777 16.871 20.343 43.132 15.414 1.862-.349 3.613 1.035 3.671 2.929 0 .01.001.02.001.03.037 1.247.562 2.413 1.398 3.355.929 1.047 1.616 2.47 2.118 4.113 1.363-.908 3.478-1.535 5.39-1.49l.001-.006v-16.533c.002-13.401-7.469-25.822-19.593-32.076z" fill="#2a428c"/></g><path d="m403.474 60.35c-13.016-24.865 11.439-40.357 11.439-40.357-3.313-.766-6.947-1.212-10.933-1.212-8.447 0-15.334 1.983-20.873 4.84-12.124 6.255-19.595 18.675-19.595 32.077v16.532l.001.006c1.912-.045 4.028.582 5.39 1.49.502-1.643 1.189-3.066 2.119-4.113.836-.942 1.361-2.108 1.398-3.355.143-4.773 1.395-16.051 9.799-20.368 2.341-1.203 5.202-.285 6.517 1.995 2.737 4.745 7.452 10.3 15.35 13.629-.205-.39-.409-.777-.612-1.164z" fill="#1c2e7a"/><path d="m368.569 95.889s-2.195-13.891.333-22.164c-2.294-1.529-6.725-2.275-8.719-.327-4.081 3.989-1.091 10.014.34 13.819.439 1.168.723 2.35.851 3.534.278 2.573 1.673 6.338 7.457 6.249-.087-.37-.176-.734-.262-1.111z" fill="#fd995b"/><path d="m447.775 73.398c-1.993-1.949-6.425-1.202-8.719.327 2.528 8.273.333 22.164.333 22.164-.085.377-.175.742-.262 1.112 5.784.089 7.179-3.677 7.457-6.249.128-1.184.412-2.366.851-3.534 1.431-3.806 4.421-9.831.34-13.82z" fill="#fcad6d"/><g><g><path d="m96.241 319.111c-23.02 3.136-25.207 16.188-25.218 20.976-.002 1.004-.559 1.935-1.461 2.374-11.974 5.825-5.518 33.899-5.518 33.899 1.202.08 3.006 1.112 3.945 1.567.23-1.431.605-2.839 1.135-4.2.404-1.037.909-2.085 1.54-3.075 1.095-1.718 1.594-3.745 1.445-5.771-.43-5.857-.768-16.852 6.963-20.331 6.549-2.947 14.583-1.241 19.706.463 3.327 1.106 6.931 1.106 10.258 0 5.123-1.704 13.157-3.41 19.706-.463 7.709 3.469 7.392 14.408 6.967 20.281-.148 2.042.337 4.089 1.441 5.82.652 1.022 1.168 2.106 1.579 3.176.51 1.33.873 2.705 1.097 4.1 1.183-.573 3.419-1.743 4.866-1.538.177-6.139.744-12.756.744-12.756 6.82-33.412-24.41-47.9-49.195-44.522z" fill="#2a428c"/><path d="m96.241 319.111c-23.02 3.136-25.207 16.188-25.218 20.976-.002 1.004-.559 1.935-1.461 2.374-11.974 5.825-5.518 33.899-5.518 33.899 1.202.08 3.006 1.112 3.945 1.567.23-1.431.605-2.839 1.135-4.2.404-1.037.909-2.085 1.54-3.075 1.095-1.718 1.594-3.745 1.445-5.771-.43-5.857-.768-16.852 6.963-20.331 6.549-2.947 14.583-1.241 19.706.463 1.401.466 2.853.724 4.311.797-.223-.383-.462-.764-.729-1.139-9.876-13.88 3.852-23.994 6.501-25.762-4.25-.424-8.523-.357-12.62.202z" fill="#1c2e7a"/></g><path d="m146.733 377.185c-1.793-1.643-5.364-.81-6.908.196.338 2.107.358 4.262.065 6.39l-1.822 13.272c0 1.07-.034 2.119-.096 3.151 4.443 1.34 6.65-2.649 7.022-5.386.16-1.178.422-2.34.785-3.473 1.182-3.693 5.446-10.033.954-14.15z" fill="#fcad6d"/><path d="m61.079 377.185c1.793-1.643 5.364-.81 6.909.196-.338 2.107-.358 4.262-.065 6.39l1.822 13.272c0 1.07.034 2.119.096 3.151-4.443 1.34-6.651-2.649-7.022-5.386-.16-1.178-.422-2.34-.785-3.473-1.183-3.693-5.447-10.033-.955-14.15z" fill="#fd995b"/><path d="m139.273 373.281c-.41-1.07-.927-2.154-1.579-3.176-1.104-1.731-1.589-3.779-1.441-5.82.425-5.872.197-17.357-7.511-20.826-6.549-2.947-14.582-1.241-19.706.463-3.327 1.107-6.933 1.107-10.26 0-5.123-1.704-13.157-3.41-19.706-.463-7.731 3.478-7.938 15.019-7.508 20.876.149 2.026-.35 4.053-1.445 5.771-.631.99-1.136 2.038-1.54 3.075-1.31 3.365-1.692 7.014-1.201 10.587l1.823 13.275c0 19.084 10.187 32.056 18.853 38.785 4.523 3.512 10.105 5.42 15.854 5.42s11.331-1.908 15.854-5.42c8.666-6.729 18.853-19.701 18.853-38.785l1.822-13.272c.486-3.538.117-7.151-1.162-10.49z" fill="#f9ba8f"/><g><path d="m113.361 435.827c-8.665-6.729-18.853-19.701-18.853-38.785l-1.823-13.275c-.491-3.573-.109-7.222 1.201-10.587.404-1.037.909-2.085 1.54-3.075 1.095-1.718 1.594-3.744 1.445-5.771-.389-5.296-.255-15.237 5.488-19.665-1.212-.116-2.415-.36-3.583-.748-5.123-1.704-13.157-3.41-19.706-.463-7.731 3.478-7.938 15.019-7.508 20.876.149 2.026-.35 4.053-1.445 5.771-.631.99-1.136 2.038-1.54 3.075-1.31 3.365-1.692 7.014-1.201 10.587l1.823 13.275c0 19.084 10.187 32.056 18.853 38.785 4.523 3.512 10.105 5.42 15.854 5.42 4.458 0 8.813-1.152 12.654-3.305-1.112-.623-2.184-1.326-3.199-2.115z" fill="#fcad6d"/></g></g><path d="m367.151 152.323c6.47 11.074 16.27 19.686 28.338 24.907 5.405 2.338 11.603 2.338 17.008 0 12.068-5.221 21.867-13.834 28.337-24.907.245-.42.479-.858.716-1.292-10.156-3.9-19.611-9.458-19.611-16.735 0-2.536 0-1.777 0-3.419-4.422 3.953-12.005 8.99-18.25 9.141-6.245-.151-13.829-5.188-18.25-9.141 0 4.714 1.251 10.389-13.567 17.584-1.747.848-3.616 1.646-5.533 2.392.267.494.533.992.812 1.47z" fill="#fcad6d"/><path d="m403.535 140.007c-6.216-.228-13.711-5.209-18.096-9.13 0 4.714 1.251 10.389-13.567 17.584-1.747.848-3.616 1.646-5.533 2.392.269.494.535.993.814 1.47 5.692 9.742 13.962 17.576 24.085 22.875 8.552-11.901 11.38-26.125 12.297-35.191z" fill="#fd995b"/><path d="m465.955 157.939c-1.382-.372-14.499-2.87-26.059-7.563-.339.611-.668 1.239-1.016 1.835-6.13 10.491-15.414 18.651-26.847 23.597-5.12 2.215-10.992 2.215-16.113 0-11.433-4.947-20.717-13.106-26.847-23.597-.381-.652-.741-1.339-1.112-2.008-11.85 4.883-26.478 7.72-26.539 7.736-2.503.481-6.405 1.57-10.534 3.941 17.827 20.085 43.833 32.746 72.8 32.746s54.973-12.661 72.8-32.747c-4.128-2.37-8.03-3.459-10.533-3.94z" fill="#fc90ce"/><path d="m435.828 66.248c-.018-.607-.057-1.341-.127-2.161-.213-.308-.468-.59-.766-.83-.906-.729-2.084-1.023-3.226-.809-25.041 4.7-36.781-5.561-42.224-14.997-.994-1.724-2.716-2.762-4.541-2.931-1.545.429-2.965 1.07-4.254 1.929-7.337 4.886-8.43 15.474-8.559 19.799-.034 1.137-.492 2.234-1.326 3.173-4.595 5.177-3.589 20.304-2.516 26.531 2.374 10.478 5.813 19.615 10.219 27.157 4.473 7.656 11.248 13.61 19.592 17.22 3.737 1.616 8.022 1.616 11.759 0 8.344-3.61 15.118-9.564 19.592-17.22 4.406-7.54 7.845-16.677 10.224-27.175 1.03-6.546 2.126-21.276-2.521-26.513-.834-.939-1.292-2.037-1.326-3.173z" fill="#f9ba8f"/><path d="m409.217 123.109c-4.407-7.542-7.845-16.678-10.219-27.157-1.072-6.228-2.078-21.354 2.516-26.531.834-.939 1.292-2.036 1.326-3.173.042-1.427.192-3.537.634-5.898-6.874-3.152-11.238-8.129-13.99-12.899-.994-1.724-2.716-2.762-4.541-2.931-1.545.429-2.965 1.07-4.254 1.929-7.337 4.886-8.43 15.474-8.559 19.799-.034 1.137-.492 2.234-1.326 3.173-4.595 5.177-3.589 20.304-2.516 26.531 2.374 10.478 5.813 19.615 10.219 27.157 4.474 7.656 11.248 13.61 19.592 17.22 3.737 1.616 8.022 1.616 11.759 0 3.445-1.49 6.617-3.386 9.475-5.631-4.064-3.191-7.489-7.094-10.116-11.589z" fill="#fcad6d"/><path d="m392.085 173.98c-9.678-5.021-17.583-12.479-23.012-21.769-.381-.652-.741-1.339-1.112-2.008-11.85 4.883-26.478 7.72-26.539 7.736-2.503.481-6.405 1.57-10.534 3.941 11.5 12.956 26.406 22.816 43.313 28.189 7.84-4.093 13.625-9.807 17.884-16.089z" fill="#f964b2"/></g></svg>